<svg xmlns="http://www.w3.org/2000/svg" width="2000.082" height="1159.522" viewBox="0 0 2000.082 1159.522">
    <defs>
        <style>
            .cls-1{fill:none;stroke:#18102b;stroke-linecap:round;stroke-linejoin:round;stroke-width:2px}.cls-2{fill:#18102b}
        </style>
    </defs>
    <g id="фон" transform="translate(51.41 23.433)">
        <g id="облака" transform="rotate(180 1118.799 435.027)">
            <g id="Group_1588" data-name="Group 1588" transform="translate(1959.179 141.792)">
                <path id="Path_2919" d="M150.782 0C113.026 4.174 37.881 4.354 0 5.853" class="cls-1" data-name="Path 2919" transform="translate(2.832)"/>
                <path id="Path_2920" d="M8.468 0C25.783 7.852 11.942 32.1 0 20.136" class="cls-1" data-name="Path 2920" transform="translate(145.146)"/>
                <path id="Path_2921" d="M38.5 0C54.5 25.071 18.976 48.863 0 24.37" class="cls-1" data-name="Path 2921" transform="translate(111.682 22.249)"/>
                <path id="Path_2922" d="M31.989 0C26.425 9.167 8.837 17.944 0 8.077" class="cls-1" data-name="Path 2922" transform="translate(97.154 35.163)"/>
                <path id="Path_2923" d="M41.272 0C52.982 22.81 9.482 41.2 0 17.956" class="cls-1" data-name="Path 2923" transform="translate(66.55 46.587)"/>
                <path id="Path_2924" d="M40.551 21.978C21.12 39.21-3.736 26.254.471 0" class="cls-1" data-name="Path 2924" transform="translate(26.741 42.421)"/>
                <path id="Path_2925" d="M24.881 11.026C15.786 15.859-.531 13.213.013 0" class="cls-1" data-name="Path 2925" transform="translate(16.604 29.421)"/>
                <path id="Path_2926" d="M32.405 17.449C20.879 29.687-9.324 16.986 2.832 0" class="cls-1" data-name="Path 2926" transform="translate(0 5.853)"/>
            </g>
            <g id="Group_1892" data-name="Group 1892" transform="translate(356.765 459.51)">
                <path id="Path_2927" d="M114.38 0C85.741 3.162 28.735 3.3 0 4.44" class="cls-1" data-name="Path 2927" transform="translate(2.151)"/>
                <path id="Path_2928" d="M6.421 0C19.56 5.955 9.057 24.35 0 15.271" class="cls-1" data-name="Path 2928" transform="translate(110.11)"/>
                <path id="Path_2929" d="M29.2 0C41.338 19.017 14.39 37.071 0 18.489" class="cls-1" data-name="Path 2929" transform="translate(84.727 16.874)"/>
                <path id="Path_2930" d="M24.265 0C20.045 6.958 6.7 13.613 0 6.132" class="cls-1" data-name="Path 2930" transform="translate(73.703 26.67)"/>
                <path id="Path_2931" d="M31.311 0C40.195 17.3 7.2 31.247 0 13.619" class="cls-1" data-name="Path 2931" transform="translate(50.482 35.341)"/>
                <path id="Path_2932" d="M30.766 16.67C16.024 29.738-2.831 19.916.356 0" class="cls-1" data-name="Path 2932" transform="translate(20.283 32.184)"/>
                <path id="Path_2933" d="M18.873 8.368C11.971 12.032-.406 10.021.01 0" class="cls-1" data-name="Path 2933" transform="translate(12.597 22.317)"/>
                <path id="Path_2934" d="M24.579 13.233C15.838 22.521-7.076 12.886 2.151 0" class="cls-1" data-name="Path 2934" transform="translate(0 4.44)"/>
            </g>
            <g id="Group_1591" data-name="Group 1591" transform="translate(1690.765 -168.713)">
                <path id="Path_2943" d="M192.717 0C144.46 5.338 48.419 5.57 0 7.482" class="cls-1" data-name="Path 2943" transform="translate(3.62)"/>
                <path id="Path_2944" d="M10.823 0C32.959 10.043 15.269 41.034 0 25.729" class="cls-1" data-name="Path 2944" transform="translate(185.514)"/>
                <path id="Path_2945" d="M49.2 0C69.65 32.05 24.253 62.447 0 31.149" class="cls-1" data-name="Path 2945" transform="translate(142.744 28.44)"/>
                <path id="Path_2946" d="M40.881 0C33.771 11.723 11.291 22.944 0 10.33" class="cls-1" data-name="Path 2946" transform="translate(124.176 44.943)"/>
                <path id="Path_2947" d="M52.748 0C67.711 29.144 12.113 52.645 0 22.944" class="cls-1" data-name="Path 2947" transform="translate(85.058 59.552)"/>
                <path id="Path_2948" d="M51.832 28.1C26.99 50.112-4.776 33.553.6 0" class="cls-1" data-name="Path 2948" transform="translate(34.177 54.224)"/>
                <path id="Path_2949" d="M31.8 14.09C20.173 20.262-.687 16.875.017 0" class="cls-1" data-name="Path 2949" transform="translate(21.224 37.609)"/>
                <path id="Path_2950" d="M41.42 22.3C26.686 37.943-11.917 21.719 3.62 0" class="cls-1" data-name="Path 2950" transform="translate(0 7.482)"/>
            </g>
            <g id="Group_2315" data-name="Group 2315" transform="translate(317.765 -264.713)">
                <path id="Path_2943-2" d="M192.717 0C144.46 5.338 48.419 5.57 0 7.482" class="cls-1" data-name="Path 2943" transform="translate(3.62)"/>
                <path id="Path_2944-2" d="M10.823 0C32.959 10.043 15.269 41.034 0 25.729" class="cls-1" data-name="Path 2944" transform="translate(185.514)"/>
                <path id="Path_2945-2" d="M49.2 0C69.65 32.05 24.253 62.447 0 31.149" class="cls-1" data-name="Path 2945" transform="translate(142.744 28.44)"/>
                <path id="Path_2946-2" d="M40.881 0C33.771 11.723 11.291 22.944 0 10.33" class="cls-1" data-name="Path 2946" transform="translate(124.176 44.943)"/>
                <path id="Path_2947-2" d="M52.748 0C67.711 29.144 12.113 52.645 0 22.944" class="cls-1" data-name="Path 2947" transform="translate(85.058 59.552)"/>
                <path id="Path_2948-2" d="M51.832 28.1C26.99 50.112-4.776 33.553.6 0" class="cls-1" data-name="Path 2948" transform="translate(34.177 54.224)"/>
                <path id="Path_2949-2" d="M31.8 14.09C20.173 20.262-.687 16.875.017 0" class="cls-1" data-name="Path 2949" transform="translate(21.224 37.609)"/>
                <path id="Path_2950-2" d="M41.42 22.3C26.686 37.943-11.917 21.719 3.62 0" class="cls-1" data-name="Path 2950" transform="translate(0 7.482)"/>
            </g>
            <g id="Group_1845" data-name="Group 1845" transform="translate(622)">
                <path id="Path_2943-3" d="M173.265 0C129.879 4.8 43.531 5.008 0 6.726" class="cls-1" data-name="Path 2943" transform="translate(3.255)"/>
                <path id="Path_2944-3" d="M9.73 0c19.9 9.029 4 36.893-9.73 23.132" class="cls-1" data-name="Path 2944" transform="translate(166.789)"/>
                <path id="Path_2945-3" d="M44.236 0C62.62 28.815 21.8 56.144 0 28.005" class="cls-1" data-name="Path 2945" transform="translate(128.336 25.569)"/>
                <path id="Path_2946-3" d="M36.755 0C30.363 10.54 10.151 20.628 0 9.288" class="cls-1" data-name="Path 2946" transform="translate(111.642 40.406)"/>
                <path id="Path_2947-3" d="M47.424 0C60.876 26.2 10.89 47.332 0 20.628" class="cls-1" data-name="Path 2947" transform="translate(76.473 53.541)"/>
                <path id="Path_2948-3" d="M46.6 25.26C24.266 45.054-4.294 30.166.541 0" class="cls-1" data-name="Path 2948" transform="translate(30.727 48.751)"/>
                <path id="Path_2949-3" d="M28.589 12.667C18.137 18.217-.618 15.172.016 0" class="cls-1" data-name="Path 2949" transform="translate(19.082 33.813)"/>
                <path id="Path_2950-3" d="M37.24 20.052C23.992 34.113-10.714 19.527 3.255 0" class="cls-1" data-name="Path 2950" transform="translate(0 6.727)"/>
            </g>
            <g id="Group_1595" data-name="Group 1595" transform="translate(1866.765 488.376)">
                <path id="Path_2943-4" d="M114.437 0C85.782 3.169 28.752 3.307 0 4.443" class="cls-1" data-name="Path 2943" transform="translate(2.149)"/>
                <path id="Path_2944-4" d="M6.426 0C19.572 5.964 9.067 24.367 0 15.278" class="cls-1" data-name="Path 2944" transform="translate(110.16)"/>
                <path id="Path_2945-4" d="M29.217 0C41.359 19.032 14.4 37.082 0 18.5" class="cls-1" data-name="Path 2945" transform="translate(84.763 16.888)"/>
                <path id="Path_2946-4" d="M24.276 0C20.054 6.961 6.7 13.624 0 6.135" class="cls-1" data-name="Path 2946" transform="translate(73.736 26.687)"/>
                <path id="Path_2947-4" d="M31.322 0C40.207 17.306 7.193 31.261 0 13.624" class="cls-1" data-name="Path 2947" transform="translate(50.508 35.362)"/>
                <path id="Path_2948-4" d="M30.778 16.683C16.027 29.757-2.837 19.924.358 0" class="cls-1" data-name="Path 2948" transform="translate(20.295 32.199)"/>
                <path id="Path_2949-4" d="M18.882 8.367C11.979 12.032-.408 10.02.01 0" class="cls-1" data-name="Path 2949" transform="translate(12.603 22.333)"/>
                <path id="Path_2950-4" d="M24.6 13.244C15.846 22.531-7.077 12.9 2.15 0" class="cls-1" data-name="Path 2950" transform="translate(0 4.443)"/>
            </g>
            <g id="Group_1842" data-name="Group 1842" transform="translate(1724.765 847.298)">
                <path id="Path_2943-5" d="M90.445 0C67.8 2.505 22.724 2.614 0 3.511" class="cls-1" data-name="Path 2943" transform="translate(1.699)"/>
                <path id="Path_2944-5" d="M5.079 0C15.469 4.713 7.166 19.258 0 12.075" class="cls-1" data-name="Path 2944" transform="translate(87.065)"/>
                <path id="Path_2945-5" d="M23.091 0C32.688 15.042 11.382 29.308 0 14.619" class="cls-1" data-name="Path 2945" transform="translate(66.992 13.347)"/>
                <path id="Path_2946-5" d="M19.186 0C15.85 5.5 5.3 10.768 0 4.848" class="cls-1" data-name="Path 2946" transform="translate(58.278 21.092)"/>
                <path id="Path_2947-5" d="M24.755 0C31.778 13.678 5.685 24.707 0 10.768" class="cls-1" data-name="Path 2947" transform="translate(39.919 27.949)"/>
                <path id="Path_2948-5" d="M24.326 13.186C12.667 23.518-2.242 15.747.283 0" class="cls-1" data-name="Path 2948" transform="translate(16.04 25.448)"/>
                <path id="Path_2949-5" d="M14.923 6.613C9.467 9.51-.323 7.92.008 0" class="cls-1" data-name="Path 2949" transform="translate(9.961 17.651)"/>
                <path id="Path_2950-5" d="M19.439 10.467C12.524 17.807-5.593 10.193 1.7 0" class="cls-1" data-name="Path 2950" transform="translate(0 3.511)"/>
            </g>
            <g id="Group_1843" data-name="Group 1843" transform="translate(621.765 757.298)">
                <path id="Path_2943-6" d="M90.445 0C67.8 2.505 22.724 2.614 0 3.511" class="cls-1" data-name="Path 2943" transform="translate(1.699)"/>
                <path id="Path_2944-6" d="M5.079 0C15.469 4.713 7.166 19.258 0 12.075" class="cls-1" data-name="Path 2944" transform="translate(87.065)"/>
                <path id="Path_2945-6" d="M23.091 0C32.688 15.042 11.382 29.308 0 14.619" class="cls-1" data-name="Path 2945" transform="translate(66.992 13.347)"/>
                <path id="Path_2946-6" d="M19.186 0C15.85 5.5 5.3 10.768 0 4.848" class="cls-1" data-name="Path 2946" transform="translate(58.278 21.092)"/>
                <path id="Path_2947-6" d="M24.755 0C31.778 13.678 5.685 24.707 0 10.768" class="cls-1" data-name="Path 2947" transform="translate(39.919 27.949)"/>
                <path id="Path_2948-6" d="M24.326 13.186C12.667 23.518-2.242 15.747.283 0" class="cls-1" data-name="Path 2948" transform="translate(16.04 25.448)"/>
                <path id="Path_2949-6" d="M14.923 6.613C9.467 9.51-.323 7.92.008 0" class="cls-1" data-name="Path 2949" transform="translate(9.961 17.651)"/>
                <path id="Path_2950-6" d="M19.439 10.467C12.524 17.807-5.593 10.193 1.7 0" class="cls-1" data-name="Path 2950" transform="translate(0 3.511)"/>
            </g>
        </g>
        <g id="звёзды" transform="rotate(180 954.951 540.026)">
            <path id="Path_3020" d="M5.282 14.536L4.55 9.51 0 7.268l4.547-2.243L5.274 0l3.547 3.631 5-.859-2.359 4.49 2.364 4.491-5-.854z" class="cls-2" data-name="Path 3020" transform="translate(906.069 1058.283)"/>
            <path id="Path_2956" d="M6.775 18.639L5.837 12.2 0 9.32l5.831-2.878L6.765 0l4.548 4.656 6.409-1.1-3.022 5.76 3.029 5.759-6.411-1.1z" class="cls-2" data-name="Path 2956" transform="translate(0 1034.552)"/>
            <path id="Path_2957" d="M5.565 15.3l-.773-5.288L0 7.654l4.789-2.366L5.557 0l3.73 3.825 5.265-.906-2.483 4.729 2.488 4.731-5.265-.9z" class="cls-2" data-name="Path 2957" transform="translate(553.511 66.227)"/>
            <path id="Path_3032" d="M5.626 15.479l-.781-5.346L0 7.743 4.842 5.35 5.616 0l3.777 3.866 5.326-.913L12.2 7.736l2.519 4.783-5.319-.91z" class="cls-2" data-name="Path 3032" transform="translate(324.291 823.277)"/>
            <path id="Path_2964" d="M5.689 15.651L4.9 10.245 0 7.829l4.9-2.42L5.678 0 9.5 3.909l5.385-.923-2.546 4.836 2.547 4.836-5.386-.92z" class="cls-2" data-name="Path 2964" transform="translate(166.105 592.43)"/>
            <path id="Path_2952" d="M5.285 14.541l-.735-5.02L0 7.273l4.55-2.248L5.277 0l3.544 3.637 5-.859-2.36 4.49 2.364 4.49-5-.854z" class="cls-2" data-name="Path 2952" transform="rotate(180 939.09 146.116)"/>
            <path id="Path_2953" d="M5.282 14.536L4.55 9.51 0 7.268l4.547-2.243L5.274 0l3.547 3.631 5-.859-2.359 4.49 2.364 4.491-5-.854z" class="cls-2" data-name="Path 2953" transform="rotate(180 741.236 96.268)"/>
            <path id="Path_3020-2" d="M5.282 14.536L4.55 9.51 0 7.268l4.547-2.243L5.274 0l3.547 3.631 5-.859-2.359 4.49 2.364 4.491-5-.854z" class="cls-2" data-name="Path 3020" transform="rotate(180 632.034 7.268)"/>
            <path id="Path_2956-2" d="M6.775 18.639L5.837 12.2 0 9.32l5.831-2.878L6.765 0l4.548 4.656 6.409-1.1-3.022 5.76 3.029 5.759-6.411-1.1z" class="cls-2" data-name="Path 2956" transform="rotate(180 863.27 73.634)"/>
            <path id="Path_11055" d="M6.775 18.639L5.837 12.2 0 9.32l5.831-2.878L6.765 0l4.548 4.656 6.409-1.1-3.022 5.76 3.029 5.759-6.411-1.1z" class="cls-2" data-name="Path 11055" transform="rotate(180 43.77 92.633)"/>
            <path id="Path_2957-2" d="M5.565 15.3l-.773-5.288L0 7.654l4.789-2.366L5.557 0l3.73 3.825 5.265-.906-2.483 4.729 2.488 4.731-5.265-.9z" class="cls-2" data-name="Path 2957" transform="rotate(180 885.015 529.295)"/>
            <path id="Path_2959" d="M8.295 22.82l-1.149-7.882L0 11.41l7.141-3.523L8.28 0l5.568 5.7L21.7 4.349 18 11.4l3.711 7.057-7.861-1.347z" class="cls-2" data-name="Path 2959" transform="rotate(180 836.687 411.476)"/>
            <path id="Path_3032-2" d="M5.626 15.479l-.781-5.346L0 7.743 4.842 5.35 5.616 0l3.777 3.866 5.326-.913L12.2 7.736l2.519 4.783-5.319-.91z" class="cls-2" data-name="Path 3032" transform="rotate(180 798.125 236.27)"/>
            <path id="Path_11054" d="M5.626 15.479l-.781-5.346L0 7.743 4.842 5.35 5.616 0l3.777 3.866 5.326-.913L12.2 7.736l2.519 4.783-5.319-.91z" class="cls-2" data-name="Path 11054" transform="rotate(180 202.625 224.27)"/>
            <path id="Path_2964-2" d="M5.689 15.651L4.9 10.245 0 7.829l4.9-2.42L5.678 0 9.5 3.909l5.385-.923-2.546 4.836 2.547 4.836-5.386-.92z" class="cls-2" data-name="Path 2964" transform="rotate(180 939.717 301.526)"/>
        </g>
        <g id="остальной_шум" data-name="остальной шум" transform="translate(-51.41 4.268)">
            <path id="Path_2967" d="M0 .931c2.243-2.248 2.243 0 2.243 2.243" class="cls-1" data-name="Path 2967" transform="rotate(180 829.8 288.649)"/>
            <path id="Path_2968" d="M0 0c4.488 0 2.245 2.242 0 2.242" class="cls-1" data-name="Path 2968" transform="rotate(180 581.444 101.26)"/>
            <path id="Path_2969" d="M2.243 0c0 2.248 0 2.248-2.243 4.491" class="cls-1" data-name="Path 2969" transform="rotate(180 633.067 143.404)"/>
            <path id="Path_3022" d="M0 1.682c2.242-2.242 2.242-2.242 4.49 0" class="cls-1" data-name="Path 3022" transform="rotate(180 513.134 106.375)"/>
            <path id="Path_2979" d="M5.29 0C3.528 0 1.764 1.762 0 1.762" class="cls-1" data-name="Path 2979" transform="rotate(180 560.422 247.122)"/>
            <path id="Line_156" d="M1 0L0 3.607" class="cls-1" data-name="Line 156" transform="rotate(180 642.371 374.116)"/>
            <path id="Line_157" d="M2.248 0L0 2.248" class="cls-1" data-name="Line 157" transform="rotate(180 597.857 313.035)"/>
            <path id="Line_174" d="M2.248 0L0 2.248" class="cls-1" data-name="Line 174" transform="rotate(180 712.621 352.035)"/>
            <path id="Line_158" d="M0 0L2.955 1.677" class="cls-1" data-name="Line 158" transform="rotate(180 519.871 456.116)"/>
            <path id="Path_2983" d="M2.248 2.593C2.248-1.9 0 .345 0 2.593" class="cls-1" data-name="Path 2983" transform="rotate(180 687.607 213.929)"/>
            <path id="Path_3024" d="M0 0h2.248" class="cls-1" data-name="Path 3024" transform="rotate(180 949.965 239.228)"/>
            <path id="Line_160" d="M0 3.306L2.092 0" class="cls-1" data-name="Line 160" transform="rotate(180 949.917 147.116)"/>
            <path id="Line_161" d="M0 0L2.672 3.526" class="cls-1" data-name="Line 161" transform="rotate(180 861.707 81.879)"/>
            <path id="Path_2989" d="M0 4.49C2.245 2.248 2.245 2.248 2.245 0" class="cls-1" data-name="Path 2989" transform="rotate(180 904.981 117.384)"/>
            <path id="Path_2992" d="M0 0h2.242" class="cls-1" data-name="Path 2992" transform="rotate(180 695.812 110.937)"/>
            <path id="Path_3019" d="M0 0h2.242" class="cls-1" data-name="Path 3019" transform="rotate(180 624.812 56.938)"/>
            <path id="Path_2995" d="M0 0c2.243 0 2.243 0 2.243 2.248" class="cls-1" data-name="Path 2995" transform="rotate(180 782.324 97.183)"/>
            <path id="Path_2998" d="M.627 2.243C-1.615 4.491 2.875 0 2.875 0" class="cls-1" data-name="Path 2998" transform="rotate(180 476.438 34.728)"/>
            <path id="Path_3023" d="M.627 2.243C-1.615 4.491 2.875 0 2.875 0" class="cls-1" data-name="Path 3023" transform="rotate(180 825.438 66.728)"/>
            <path id="Path_2999" d="M4.488 0c0 2.248-2.243 2.248-4.488 0" class="cls-1" data-name="Path 2999" transform="rotate(180 418.888 15.839)"/>
            <path id="Path_3004" d="M0 0h2.245" class="cls-1" data-name="Path 3004" transform="rotate(180 734.371 155.8)"/>
            <path id="Path_3014" d="M0 0v2.243" class="cls-1" data-name="Path 3014" transform="rotate(180 937.583 70.706)"/>
            <path id="Path_11050" d="M0 0v2.243" class="cls-1" data-name="Path 11050" transform="rotate(180 460.793 178.206)"/>
            <path id="Path_3033" d="M0 0v2.243" class="cls-1" data-name="Path 3033" transform="rotate(180 800.083 239.706)"/>
            <path id="Path_11049" d="M0 0v2.243" class="cls-1" data-name="Path 11049" transform="rotate(180 323.293 347.205)"/>
            <path id="Path_3016" d="M2.243 0A2.2 2.2 0 0 1 0 2.242" class="cls-1" data-name="Path 3016" transform="rotate(180 974.995 108.606)"/>
            <path id="Path_11048" d="M2.243 0A2.2 2.2 0 0 1 0 2.242" class="cls-1" data-name="Path 11048" transform="rotate(180 498.205 216.106)"/>
            <path id="Path_3083" d="M0 1.682c2.242-2.242 2.242-2.242 4.49 0" class="cls-1" data-name="Path 3083" transform="rotate(180 521.633 305.875)"/>
            <path id="Path_11046" d="M0 1.682c2.242-2.242 2.242-2.242 4.49 0" class="cls-1" data-name="Path 11046" transform="rotate(180 44.842 413.375)"/>
            <path id="Path_3027" d="M0 0c2.243 0 2.243 0 2.243 2.248" class="cls-1" data-name="Path 3027" transform="rotate(180 734.824 505.683)"/>
            <path id="Path_3028" d="M0 0h2.242" class="cls-1" data-name="Path 3028" transform="rotate(180 525.813 24.938)"/>
            <path id="Line_168" d="M0 3.306L2.092 0" class="cls-1" data-name="Line 168" transform="rotate(180 980.121 291.616)"/>
            <path id="Path_3030" d="M2.243 0A2.2 2.2 0 0 1 0 2.242" class="cls-1" data-name="Path 3030" transform="rotate(180 806.995 181.606)"/>
            <path id="Path_3031" d="M3.6 0C1.676 2.381 0 1.919 0 1.919" class="cls-1" data-name="Path 3031" transform="rotate(180 885.995 233.945)"/>
            <path id="Path_4778" d="M0 0c2.243 0 2.243 0 2.243 2.248" class="cls-1" data-name="Path 4778" transform="rotate(105.01 246.72 848.119)"/>
            <path id="Path_4783" d="M0 0c2.243 0 2.243 0 2.243 2.248" class="cls-1" data-name="Path 4783" transform="rotate(172 675.137 474.89)"/>
            <path id="Path_2967-2" d="M0 .931c2.243-2.248 2.243 0 2.243 2.243" class="cls-1" data-name="Path 2967" transform="translate(160.481 457.451)"/>
            <path id="Line_157-2" d="M2.248 0L0 2.248" class="cls-1" data-name="Line 157" transform="translate(829.367 171.679)"/>
            <path id="Path_2983-2" d="M2.248 2.593C2.248-1.9 0 .345 0 2.593" class="cls-1" data-name="Path 2983" transform="translate(154.868 236.891)"/>
            <path id="Path_3024-2" d="M0 0h2.248" class="cls-1" data-name="Path 3024" transform="translate(100.152 606.295)"/>
            <path id="Line_160-2" d="M0 3.306L2.092 0" class="cls-1" data-name="Line 160" transform="translate(229.248 474.518)"/>
            <path id="Line_161-2" d="M0 0L2.672 3.526" class="cls-1" data-name="Line 161" transform="translate(276.668 920.992)"/>
            <path id="Path_2989-2" d="M0 4.49C2.245 2.248 2.245 2.248 2.245 0" class="cls-1" data-name="Path 2989" transform="translate(190.119 849.982)"/>
            <path id="Path_3019-2" d="M0 0h2.242" class="cls-1" data-name="Path 3019" transform="translate(750.457 933.875)"/>
            <path id="Path_2998-2" d="M.627 2.243C-1.615 4.491 2.875 0 2.875 0" class="cls-1" data-name="Path 2998" transform="translate(1047.205 1015.293)"/>
            <path id="Path_3023-2" d="M.627 2.243C-1.615 4.491 2.875 0 2.875 0" class="cls-1" data-name="Path 3023" transform="translate(519.205 91.293)"/>
            <path id="Path_2999-2" d="M4.488 0c0 2.248-2.243 2.248-4.488 0" class="cls-1" data-name="Path 2999" transform="translate(912.305 953.072)"/>
            <path id="Path_3014-2" d="M0 0v2.243" class="cls-1" data-name="Path 3014" transform="translate(124.915 950.339)"/>
            <path id="Path_3016-2" d="M2.243 0A2.2 2.2 0 0 1 0 2.242" class="cls-1" data-name="Path 3016" transform="translate(100.091 327.537)"/>
            <path id="Path_3018" d="M0 1.682c2.242-2.242 2.242-2.242 4.49 0" class="cls-1" data-name="Path 3018" transform="translate(490.815)"/>
            <path id="Path_3027-2" d="M0 0c2.243 0 2.243 0 2.243 2.248" class="cls-1" data-name="Path 3027" transform="translate(537.433 183.385)"/>
            <path id="Path_3029" d="M0 0h2.242" class="cls-1" data-name="Path 3029" transform="translate(324.457 69.875)"/>
            <path id="Line_168-2" d="M0 3.306L2.092 0" class="cls-1" data-name="Line 168" transform="translate(220.84 341.517)"/>
            <path id="Path_3030-2" d="M2.243 0A2.2 2.2 0 0 1 0 2.242" class="cls-1" data-name="Path 3030" transform="translate(89.09 74.537)"/>
            <path id="Path_3031-2" d="M3.6 0C1.676 2.381 0 1.919 0 1.919" class="cls-1" data-name="Path 3031" transform="translate(228.09 616.86)"/>
            <path id="Path_4779" d="M0 .931c2.243-2.248 2.243 0 2.243 2.243" class="cls-1" data-name="Path 4779" transform="rotate(180 744.3 213.65)"/>
        </g>
    </g>
</svg>